<svg width="295" height="139" viewBox="0 0 295 139" fill="none" xmlns="http://www.w3.org/2000/svg">
<path d="M1.95 7.128C2.12067 8.92 2.50467 11.1067 3.102 13.688C3.69933 16.248 4.126 17.8907 4.382 18.616C4.638 19.3413 4.77667 19.7573 4.798 19.864C4.84067 19.9493 4.87267 20.024 4.894 20.088C4.91533 20.1307 4.93667 20.2053 4.958 20.312C5.00067 20.3973 5.03267 20.4613 5.054 20.504C5.07533 20.5467 5.10733 20.6107 5.15 20.696C5.19267 20.76 5.23533 20.8133 5.278 20.856C5.32067 20.8773 5.36333 20.9093 5.406 20.952C5.534 21.0373 5.662 21.08 5.79 21.08C5.93933 21.08 6.09933 20.824 6.27 20.312C6.44067 19.7573 6.76067 18.4347 7.23 16.344C8.42467 11.0107 9.65133 7.23467 10.91 5.016C11.2087 4.504 11.5287 4.248 11.87 4.248C12.51 4.248 12.83 4.568 12.83 5.208C12.83 5.42133 12.766 5.64533 12.638 5.88C11.358 8.09867 10.142 11.8427 8.99 17.112C8.52067 19.1813 8.20067 20.504 8.03 21.08C7.60333 22.36 6.85667 23 5.79 23C4.46733 23 3.50733 22.072 2.91 20.216C2.41933 18.808 1.86467 16.7707 1.246 14.104C0.627333 11.416 0.232667 9.21867 0.062 7.512C0.0406667 7.384 0.0300001 7.256 0.0300001 7.128C0.0300001 6.488 0.35 6.168 0.99 6.168C1.566 6.168 1.886 6.488 1.95 7.128ZM16.237 21.144C16.2157 21.144 16.0557 21.2293 15.757 21.4C14.989 21.8267 14.4237 22.04 14.061 22.04C13.421 22.04 13.101 21.72 13.101 21.08C13.101 20.6747 13.421 20.344 14.061 20.088C14.1677 20.0453 14.4237 19.9173 14.829 19.704C15.2343 19.4907 15.469 19.3627 15.533 19.32C15.4477 19.128 15.405 18.84 15.405 18.456C15.405 16.536 16.077 14.8933 17.421 13.528C18.765 12.1627 19.9917 11.48 21.101 11.48C22.2103 11.48 23.085 11.7467 23.725 12.28C24.365 12.792 24.685 13.4213 24.685 14.168C24.685 14.8933 24.5143 15.5227 24.173 16.056C23.8317 16.5893 23.2983 17.112 22.573 17.624C21.5703 18.3493 20.109 19.192 18.189 20.152C19.0423 20.7707 20.2263 21.08 21.741 21.08C23.2557 21.08 24.749 20.8347 26.221 20.344C26.669 20.1947 26.925 20.12 26.989 20.12C27.629 20.12 27.949 20.44 27.949 21.08C27.949 21.5493 27.629 21.8907 26.989 22.104C25.197 22.7013 23.469 23 21.805 23C19.437 23 17.581 22.3813 16.237 21.144ZM17.325 18.456C20.9517 16.6427 22.765 15.2773 22.765 14.36C22.765 13.72 22.2317 13.4 21.165 13.4C20.525 13.4 19.725 13.912 18.765 14.936C17.805 15.9387 17.325 17.112 17.325 18.456ZM47.1615 22.104C46.0095 22.488 45.1135 22.68 44.4735 22.68C43.8335 22.68 43.3322 22.4453 42.9695 21.976C42.6068 21.5067 42.2762 20.7067 41.9775 19.576C41.7002 18.4453 41.4868 17.88 41.3375 17.88C40.7828 17.88 40.1962 18.7333 39.5775 20.44C39.3428 21.08 38.9588 21.6667 38.4255 22.2C37.8922 22.7333 37.2202 23 36.4095 23C35.6202 23 35.0015 22.648 34.5535 21.944C34.1055 21.24 33.8388 20.472 33.7535 19.64C33.6895 18.808 33.5828 18.04 33.4335 17.336C33.2842 16.632 33.0388 16.28 32.6975 16.28C32.4628 16.28 32.2922 16.344 32.1855 16.472C32.0788 16.6 31.9828 16.728 31.8975 16.856C31.8335 16.9627 31.7588 17.08 31.6735 17.208C31.6095 17.3147 31.5242 17.464 31.4175 17.656C31.3322 17.848 31.2255 18.0507 31.0975 18.264C30.6708 19.0107 30.3295 19.5653 30.0735 19.928C29.5615 20.7387 28.8042 21.3573 27.8015 21.784C27.4175 21.9547 27.1082 22.04 26.8735 22.04C26.2335 22.04 25.9135 21.72 25.9135 21.08C25.9135 20.6747 26.2548 20.344 26.9375 20.088C27.6202 19.832 28.1002 19.4693 28.3775 19C28.6762 18.5093 29.0068 17.9547 29.3695 17.336C29.7322 16.7173 29.9775 16.3013 30.1055 16.088C30.2548 15.8747 30.4362 15.6187 30.6495 15.32C30.8628 15 31.0548 14.7973 31.2255 14.712C31.6735 14.4773 32.1642 14.36 32.6975 14.36C33.5722 14.36 34.2335 14.712 34.6815 15.416C35.1295 16.12 35.3855 16.888 35.4495 17.72C35.5348 18.552 35.6522 19.32 35.8015 20.024C35.9508 20.728 36.1962 21.08 36.5375 21.08C36.8788 21.08 37.1988 20.8133 37.4975 20.28C37.8175 19.7467 38.0948 19.16 38.3295 18.52C38.5642 17.88 38.9375 17.2933 39.4495 16.76C39.9828 16.2267 40.6122 15.96 41.3375 15.96C41.8922 15.96 42.2975 16.0987 42.5535 16.376C42.8095 16.632 42.9908 16.8347 43.0975 16.984C43.2255 17.1333 43.3322 17.3573 43.4175 17.656C43.5242 17.9547 43.5988 18.1787 43.6415 18.328C43.6842 18.456 43.7482 18.6907 43.8335 19.032C44.0895 20.2053 44.3242 20.7813 44.5375 20.76C44.9428 20.76 45.4655 20.6533 46.1055 20.44C46.7455 20.2267 47.0975 20.12 47.1615 20.12C47.8015 20.12 48.1215 20.44 48.1215 21.08C48.1215 21.5493 47.8015 21.8907 47.1615 22.104ZM65.3978 21.08C65.3978 21.9333 64.4164 22.36 62.4538 22.36C61.5364 22.36 60.8218 22.1573 60.3098 21.752C59.8191 21.3467 59.5738 20.6427 59.5738 19.64C59.5738 18.6373 59.4884 17.7733 59.3178 17.048C59.1471 16.3227 58.9124 15.96 58.6138 15.96C57.7178 15.96 56.8644 16.792 56.0538 18.456C55.7124 19.1387 55.3498 19.832 54.9658 20.536C54.5818 21.2187 54.0698 21.8053 53.4298 22.296C52.8111 22.7653 52.0858 23 51.2538 23C49.3338 23 48.3738 21.144 48.3738 17.432C48.3738 14.7653 48.6618 12.1733 49.2378 9.656C49.8351 7.13867 50.6564 5.06933 51.7018 3.448C52.7684 1.80533 53.8884 0.983999 55.0618 0.983999C56.2351 0.983999 57.1204 1.41067 57.7178 2.264C58.3151 3.11733 58.6138 4.22667 58.6138 5.592C58.6138 6.936 58.2298 8.26933 57.4618 9.592C56.7151 10.8933 55.7978 11.9493 54.7098 12.76C54.1764 13.1867 53.7711 13.4 53.4938 13.4C52.8538 13.4 52.5338 13.08 52.5338 12.44C52.5338 12.184 52.8964 11.7787 53.6218 11.224C54.3471 10.6693 55.0404 9.88 55.7018 8.856C56.3631 7.81067 56.6938 6.59467 56.6938 5.208C56.6938 4.632 56.5658 4.10933 56.3098 3.64C56.0538 3.14933 55.6484 2.904 55.0938 2.904C54.4538 2.904 53.7604 3.576 53.0138 4.92C52.2884 6.24267 51.6484 8.056 51.0938 10.36C50.5604 12.664 50.2938 15.032 50.2938 17.464C50.2938 19.8747 50.6138 21.08 51.2538 21.08C52.1498 21.08 53.0031 20.248 53.8138 18.584C54.1551 17.9013 54.5178 17.2187 54.9018 16.536C55.2858 15.832 55.7871 15.2453 56.4058 14.776C57.0458 14.2853 57.7818 14.04 58.6138 14.04C60.5338 14.04 61.4938 15.8533 61.4938 19.48C61.4938 20.12 61.8031 20.44 62.4218 20.44C63.0618 20.44 63.5418 20.3867 63.8618 20.28C64.1818 20.1733 64.3738 20.12 64.4378 20.12C65.0778 20.12 65.3978 20.44 65.3978 21.08ZM78.775 20.376C78.775 20.376 79.1163 20.2907 79.799 20.12C80.439 20.12 80.759 20.44 80.759 21.08C80.759 21.5493 80.439 21.8907 79.799 22.104C79.415 22.232 79.031 22.296 78.647 22.296C78.2843 22.296 77.9323 22.2107 77.591 22.04C77.2497 21.8693 76.983 21.6133 76.791 21.272C76.471 20.7173 76.2363 20.12 76.087 19.48L75.959 18.936C75.5963 19.5547 74.711 20.28 73.303 21.112C71.9163 21.944 70.4337 22.36 68.855 22.36C68.0017 22.36 67.255 22.04 66.615 21.4C65.975 20.76 65.655 20.0133 65.655 19.16C65.655 17.0907 66.5083 15.2987 68.215 13.784C69.9217 12.248 71.6497 11.48 73.399 11.48C74.359 11.48 75.1803 11.6613 75.863 12.024C76.567 12.3653 76.919 12.7173 76.919 13.08C76.919 13.72 76.599 14.04 75.959 14.04C75.831 14.04 75.5217 13.9333 75.031 13.72C74.5403 13.5067 73.9963 13.4 73.399 13.4C72.247 13.4 70.9883 13.9653 69.623 15.096C68.2577 16.2053 67.575 17.56 67.575 19.16C67.575 19.48 67.703 19.7787 67.959 20.056C68.2363 20.312 68.535 20.44 68.855 20.44C70.1137 20.44 71.287 20.1093 72.375 19.448C73.463 18.7653 74.1563 18.2107 74.455 17.784C74.7537 17.336 74.999 16.9307 75.191 16.568C75.383 16.2053 75.5217 15.9707 75.607 15.864C75.7137 15.736 75.927 15.672 76.247 15.672C76.567 15.672 76.8123 15.7893 76.983 16.024C77.1537 16.2587 77.3137 16.632 77.463 17.144C77.6123 17.6347 77.7617 18.1893 77.911 18.808C78.0603 19.4267 78.1883 19.8427 78.295 20.056C78.423 20.2693 78.583 20.376 78.775 20.376ZM97.237 21.144C97.2157 21.144 97.0557 21.2293 96.757 21.4C95.989 21.8267 95.4237 22.04 95.061 22.04C94.421 22.04 94.101 21.72 94.101 21.08C94.101 20.6747 94.421 20.344 95.061 20.088C95.1677 20.0453 95.4237 19.9173 95.829 19.704C96.2343 19.4907 96.469 19.3627 96.533 19.32C96.4477 19.128 96.405 18.84 96.405 18.456C96.405 16.536 97.077 14.8933 98.421 13.528C99.765 12.1627 100.992 11.48 102.101 11.48C103.21 11.48 104.085 11.7467 104.725 12.28C105.365 12.792 105.685 13.4213 105.685 14.168C105.685 14.8933 105.514 15.5227 105.173 16.056C104.832 16.5893 104.298 17.112 103.573 17.624C102.57 18.3493 101.109 19.192 99.189 20.152C100.042 20.7707 101.226 21.08 102.741 21.08C104.256 21.08 105.749 20.8347 107.221 20.344C107.669 20.1947 107.925 20.12 107.989 20.12C108.629 20.12 108.949 20.44 108.949 21.08C108.949 21.5493 108.629 21.8907 107.989 22.104C106.197 22.7013 104.469 23 102.805 23C100.437 23 98.581 22.3813 97.237 21.144ZM98.325 18.456C101.952 16.6427 103.765 15.2773 103.765 14.36C103.765 13.72 103.232 13.4 102.165 13.4C101.525 13.4 100.725 13.912 99.765 14.936C98.805 15.9387 98.325 17.112 98.325 18.456ZM109.858 12.44C109.858 11.8 110.178 11.48 110.818 11.48C111.095 11.48 111.458 11.8 111.906 12.44L113.922 15.256C114.839 13.8693 115.852 12.8347 116.962 12.152C117.687 11.704 118.444 11.48 119.234 11.48C120.023 11.48 120.684 11.7467 121.218 12.28C121.751 12.8133 122.018 13.4533 122.018 14.2C122.018 14.9253 121.954 15.6293 121.826 16.312C121.698 16.9947 121.484 17.72 121.186 18.488C120.887 19.2347 120.418 19.8533 119.778 20.344C119.159 20.8347 118.487 21.08 117.762 21.08C117.058 21.08 116.482 20.9733 116.034 20.76C115.586 20.5467 115.266 20.3333 115.074 20.12C114.882 19.8853 114.658 19.5867 114.402 19.224C114.146 18.84 113.975 18.5947 113.89 18.488C112.972 20.0027 112.268 21.2507 111.778 22.232C111.266 23.256 110.988 23.8107 110.946 23.896C110.796 24.152 110.54 24.28 110.178 24.28C109.538 24.28 109.218 23.96 109.218 23.32C109.218 23.1067 109.346 22.7867 109.602 22.36C111.052 19.48 112.076 17.6347 112.674 16.824C112.546 16.6533 111.778 15.5867 110.37 13.624C110.028 13.1547 109.858 12.76 109.858 12.44ZM115.106 16.888C115.916 18.0187 116.418 18.68 116.61 18.872C116.823 19.064 117.154 19.16 117.602 19.16C118.071 19.16 118.487 18.9787 118.85 18.616C119.212 18.232 119.479 17.7627 119.65 17.208C119.948 16.2267 120.098 15.2773 120.098 14.36C120.098 13.72 119.778 13.4 119.138 13.4C118.54 13.4 117.964 13.656 117.41 14.168C117.196 14.3813 117.026 14.552 116.898 14.68C116.77 14.7867 116.599 14.9787 116.385 15.256C116.172 15.512 116.023 15.6827 115.938 15.768C115.426 16.408 115.148 16.7813 115.106 16.888ZM129.681 25.56C129.659 23.768 129.595 20.8133 129.489 16.696C128.571 17.9973 128.113 19.192 128.113 20.28C128.113 21.368 128.635 23.128 129.681 25.56ZM129.425 13.88L129.393 12.44C129.393 11.8 129.713 11.48 130.353 11.48C130.993 11.48 131.312 11.8107 131.312 12.472C132.465 11.8107 133.649 11.48 134.865 11.48C136.102 11.48 137.094 11.8533 137.841 12.6C138.609 13.3253 138.993 14.3387 138.993 15.64C138.993 16.4293 138.715 17.1867 138.161 17.912C137.627 18.616 136.881 19.16 135.921 19.544C134.982 19.928 134.513 20.2267 134.513 20.44C134.513 20.696 134.843 20.824 135.505 20.824C137.403 20.824 139.537 20.472 141.905 19.768C141.243 18.7867 140.913 17.7627 140.913 16.696C140.913 15.6293 141.265 14.7653 141.969 14.104C142.694 13.4213 143.569 13.08 144.593 13.08C145.617 13.08 146.459 13.432 147.121 14.136C147.782 14.84 148.113 15.7147 148.113 16.76C148.113 18.1467 147.281 19.3307 145.617 20.312C146.385 20.6107 147.227 20.76 148.145 20.76C149.062 20.76 149.841 20.6533 150.481 20.44C151.121 20.2267 151.473 20.12 151.537 20.12C152.177 20.12 152.497 20.44 152.497 21.08C152.497 21.5493 152.177 21.8907 151.537 22.104C150.385 22.488 149.19 22.68 147.953 22.68C146.225 22.68 144.721 22.2213 143.441 21.304C140.838 22.2213 138.182 22.68 135.473 22.68C134.641 22.68 133.947 22.488 133.393 22.104C132.859 21.72 132.593 21.208 132.593 20.568C132.593 19.9067 132.806 19.3733 133.233 18.968C133.659 18.5413 134.235 18.1787 134.961 17.88C136.369 17.304 137.073 16.5573 137.073 15.64C137.073 14.1467 136.326 13.4 134.833 13.4C133.681 13.4 132.518 13.848 131.345 14.744C131.537 21.912 131.633 27.672 131.633 32.024C131.633 32.664 131.313 32.984 130.673 32.984C130.033 32.984 129.713 32.664 129.713 32.024C129.713 31 129.126 29.1227 127.953 26.392C126.779 23.6827 126.193 21.7307 126.193 20.536C126.193 19.3413 126.491 18.1573 127.089 16.984C127.686 15.8107 128.465 14.776 129.425 13.88ZM143.793 19.096C145.393 18.4133 146.193 17.6347 146.193 16.76C146.193 16.2693 146.043 15.8533 145.745 15.512C145.446 15.1707 145.051 15 144.561 15C144.091 15 143.686 15.1493 143.345 15.448C143.003 15.7467 142.833 16.1307 142.833 16.6C142.833 17.56 143.153 18.392 143.793 19.096ZM157.229 14.36L157.549 15.64C157.549 16.28 157.229 16.6 156.589 16.6C156.311 16.6 156.023 16.376 155.725 15.928C155.447 15.48 155.309 14.9573 155.309 14.36C155.309 13.3147 155.949 12.536 157.229 12.024C158.125 11.6613 159.042 11.48 159.981 11.48C160.941 11.48 161.677 11.7467 162.189 12.28C162.722 12.792 162.989 13.5707 162.989 14.616C162.989 15.64 163.085 16.696 163.277 17.784C163.469 18.8507 163.693 19.672 163.949 20.248C164.205 20.8027 164.439 21.08 164.653 21.08C165.165 21.08 165.837 20.9307 166.669 20.632C167.522 20.312 168.301 19.8 169.005 19.096C169.111 18.9893 169.453 18.6373 170.029 18.04C170.605 17.4427 171.053 16.9947 171.373 16.696C171.671 16.3973 172.077 16.0347 172.589 15.608C173.57 14.776 174.402 14.36 175.085 14.36C175.789 14.36 176.365 14.584 176.813 15.032C177.261 15.4587 177.591 15.9813 177.805 16.6C177.997 17.24 178.178 17.88 178.349 18.52C178.733 20.0347 179.159 20.7813 179.629 20.76C180.034 20.76 180.557 20.6533 181.197 20.44C181.837 20.2267 182.189 20.12 182.253 20.12C182.893 20.12 183.213 20.44 183.213 21.08C183.213 21.5493 182.893 21.8907 182.253 22.104C181.101 22.488 180.205 22.68 179.565 22.68C178.946 22.68 178.413 22.4667 177.965 22.04C177.517 21.592 177.186 21.0587 176.973 20.44C176.781 19.8 176.599 19.16 176.429 18.52C176.045 17.0267 175.629 16.28 175.181 16.28C174.733 16.28 173.122 17.6667 170.349 20.44C169.581 21.208 168.663 21.8267 167.597 22.296C166.53 22.7653 165.549 23 164.653 23C163.543 23 162.669 22.1893 162.029 20.568C161.389 18.9253 161.069 16.856 161.069 14.36C161.069 13.72 160.759 13.4 160.141 13.4C159.65 13.4 159.042 13.496 158.317 13.688C157.591 13.8587 157.229 14.0827 157.229 14.36ZM176.109 7.128C176.45 7.128 176.802 7.288 177.165 7.608C177.527 7.90667 177.709 8.22667 177.709 8.568C177.709 8.888 177.57 9.13333 177.293 9.304C177.037 9.47467 176.738 9.56 176.397 9.56C176.055 9.56 175.757 9.41067 175.501 9.112C175.266 8.792 175.149 8.45067 175.149 8.088C175.149 7.448 175.469 7.128 176.109 7.128ZM208.428 15.64C209.878 15.64 210.732 16.664 210.988 18.712C211.009 18.8187 211.03 19.0107 211.052 19.288C211.094 19.544 211.126 19.7467 211.148 19.896C211.169 20.0453 211.201 20.1627 211.244 20.248C211.244 20.3333 211.265 20.4187 211.308 20.504C211.372 20.6747 211.478 20.76 211.628 20.76C212.033 20.76 212.556 20.6533 213.196 20.44C213.836 20.2267 214.188 20.12 214.252 20.12C214.892 20.12 215.212 20.44 215.212 21.08C215.212 21.5493 214.892 21.8907 214.252 22.104C213.1 22.488 212.204 22.68 211.564 22.68C210.177 22.68 209.345 21.4427 209.068 18.968C208.94 18.0293 208.726 17.56 208.428 17.56C207.788 17.56 206.977 18.3067 205.996 19.8C205.633 20.3547 205.153 20.8667 204.556 21.336C203.958 21.8053 203.35 22.04 202.732 22.04C202.113 22.04 201.622 21.8267 201.26 21.4C200.897 20.9733 200.662 20.568 200.556 20.184C200.428 19.7573 200.225 18.8293 199.948 17.4C199.67 15.9707 199.478 15.2133 199.372 15.128C199.286 15.0427 199.212 15 199.148 15C198.849 15 198.582 15.192 198.347 15.576C198.134 15.9387 197.889 16.4507 197.612 17.112C197.334 17.7733 197.068 18.456 196.812 19.16C196.577 19.8427 196.385 20.3547 196.236 20.696C196.086 21.016 195.884 21.3893 195.628 21.816C195.158 22.6053 194.518 23 193.708 23C193.153 23 192.684 22.808 192.3 22.424C191.916 22.04 191.617 21.5493 191.404 20.952C191.02 19.7573 190.817 18.5413 190.796 17.304C190.796 16.0453 190.668 15.0853 190.411 14.424C190.177 13.7413 189.889 13.4 189.548 13.4C188.438 13.4 187.606 14.0827 187.052 15.448C186.796 16.1093 186.518 17.048 186.22 18.264C185.793 19.9067 184.78 21.0693 183.18 21.752C182.838 21.944 182.486 22.04 182.123 22.04C181.483 22.04 181.163 21.72 181.163 21.08C181.163 20.6747 181.483 20.344 182.123 20.088C182.38 19.9813 182.518 19.928 182.54 19.928C182.582 19.9067 182.668 19.864 182.796 19.8C182.924 19.736 183.009 19.6933 183.052 19.672C183.094 19.6293 183.169 19.576 183.276 19.512C183.404 19.4267 183.489 19.352 183.532 19.288C183.596 19.2027 183.67 19.1067 183.756 19C183.862 18.8933 183.937 18.7867 183.98 18.68C184.15 18.36 184.3 17.944 184.428 17.432C184.556 16.92 184.673 16.4933 184.78 16.152C184.886 15.8107 185.089 15.288 185.388 14.584C185.686 13.8587 185.996 13.3147 186.316 12.952C186.636 12.5893 187.073 12.2587 187.628 11.96C188.204 11.64 188.897 11.48 189.708 11.48C190.54 11.48 191.244 11.96 191.82 12.92C192.417 13.8587 192.716 15.2987 192.716 17.24C192.716 17.9227 192.79 18.7333 192.94 19.672C193.11 20.6107 193.366 21.08 193.708 21.08C193.878 21.08 194.06 20.856 194.252 20.408C194.444 19.9387 194.604 19.544 194.732 19.224C194.86 18.8827 195.009 18.4773 195.18 18.008C195.82 16.1947 196.449 14.9253 197.068 14.2C197.686 13.4533 198.38 13.08 199.148 13.08C200.044 13.08 200.684 13.4853 201.068 14.296C201.388 15 201.612 15.6933 201.74 16.376C202.166 18.872 202.476 20.12 202.668 20.12C203.308 20.12 204.118 19.3733 205.1 17.88C205.462 17.3253 205.942 16.8133 206.54 16.344C207.137 15.8747 207.766 15.64 208.428 15.64ZM216.299 21.144C216.278 21.144 216.118 21.2293 215.82 21.4C215.052 21.8267 214.486 22.04 214.123 22.04C213.483 22.04 213.163 21.72 213.163 21.08C213.163 20.6747 213.483 20.344 214.123 20.088C214.23 20.0453 214.486 19.9173 214.892 19.704C215.297 19.4907 215.532 19.3627 215.596 19.32C215.51 19.128 215.468 18.84 215.468 18.456C215.468 16.536 216.14 14.8933 217.484 13.528C218.828 12.1627 220.054 11.48 221.164 11.48C222.273 11.48 223.148 11.7467 223.788 12.28C224.428 12.792 224.748 13.4213 224.748 14.168C224.748 14.8933 224.577 15.5227 224.236 16.056C223.894 16.5893 223.361 17.112 222.635 17.624C221.633 18.3493 220.172 19.192 218.252 20.152C219.105 20.7707 220.289 21.08 221.804 21.08C223.318 21.08 224.812 20.8347 226.284 20.344C226.732 20.1947 226.988 20.12 227.052 20.12C227.692 20.12 228.012 20.44 228.012 21.08C228.012 21.5493 227.692 21.8907 227.052 22.104C225.26 22.7013 223.532 23 221.868 23C219.5 23 217.644 22.3813 216.299 21.144ZM217.388 18.456C221.014 16.6427 222.828 15.2773 222.828 14.36C222.828 13.72 222.294 13.4 221.228 13.4C220.588 13.4 219.788 13.912 218.828 14.936C217.868 15.9387 217.388 17.112 217.388 18.456ZM247.224 22.104C246.072 22.488 245.176 22.68 244.536 22.68C243.896 22.68 243.395 22.4453 243.032 21.976C242.669 21.5067 242.339 20.7067 242.04 19.576C241.763 18.4453 241.549 17.88 241.4 17.88C240.845 17.88 240.259 18.7333 239.64 20.44C239.405 21.08 239.021 21.6667 238.488 22.2C237.955 22.7333 237.283 23 236.472 23C235.683 23 235.064 22.648 234.616 21.944C234.168 21.24 233.901 20.472 233.816 19.64C233.752 18.808 233.645 18.04 233.496 17.336C233.347 16.632 233.101 16.28 232.76 16.28C232.525 16.28 232.355 16.344 232.248 16.472C232.141 16.6 232.045 16.728 231.96 16.856C231.896 16.9627 231.821 17.08 231.736 17.208C231.672 17.3147 231.587 17.464 231.48 17.656C231.395 17.848 231.288 18.0507 231.16 18.264C230.733 19.0107 230.392 19.5653 230.136 19.928C229.624 20.7387 228.867 21.3573 227.864 21.784C227.48 21.9547 227.171 22.04 226.936 22.04C226.296 22.04 225.976 21.72 225.976 21.08C225.976 20.6747 226.317 20.344 227 20.088C227.683 19.832 228.163 19.4693 228.44 19C228.739 18.5093 229.069 17.9547 229.432 17.336C229.795 16.7173 230.04 16.3013 230.168 16.088C230.317 15.8747 230.499 15.6187 230.712 15.32C230.925 15 231.117 14.7973 231.288 14.712C231.736 14.4773 232.227 14.36 232.76 14.36C233.635 14.36 234.296 14.712 234.744 15.416C235.192 16.12 235.448 16.888 235.512 17.72C235.597 18.552 235.715 19.32 235.864 20.024C236.013 20.728 236.259 21.08 236.6 21.08C236.941 21.08 237.261 20.8133 237.56 20.28C237.88 19.7467 238.157 19.16 238.392 18.52C238.627 17.88 239 17.2933 239.512 16.76C240.045 16.2267 240.675 15.96 241.4 15.96C241.955 15.96 242.36 16.0987 242.616 16.376C242.872 16.632 243.053 16.8347 243.16 16.984C243.288 17.1333 243.395 17.3573 243.48 17.656C243.587 17.9547 243.661 18.1787 243.704 18.328C243.747 18.456 243.811 18.6907 243.896 19.032C244.152 20.2053 244.387 20.7813 244.6 20.76C245.005 20.76 245.528 20.6533 246.168 20.44C246.808 20.2267 247.16 20.12 247.224 20.12C247.864 20.12 248.184 20.44 248.184 21.08C248.184 21.5493 247.864 21.8907 247.224 22.104ZM248.756 6.68L248.436 5.208C248.436 4.568 248.756 4.248 249.396 4.248C249.844 4.248 250.164 4.52533 250.356 5.08C250.57 5.63467 250.676 6.17867 250.676 6.712C250.676 7.224 250.719 8.04533 250.804 9.176C250.911 10.2853 251.018 11.3307 251.124 12.312C251.231 13.2933 251.338 14.264 251.444 15.224C251.572 16.184 251.647 16.824 251.668 17.144C251.69 17.4427 251.796 17.9653 251.988 18.712C252.18 19.4373 252.372 19.8 252.564 19.8C252.778 19.8 253.108 19.48 253.556 18.84C254.41 17.5387 255.508 16.2267 256.852 14.904C258.218 13.56 259.7 12.4933 261.3 11.704C261.599 11.5547 261.898 11.48 262.196 11.48C262.836 11.48 263.156 11.8 263.156 12.44C263.156 12.6747 263.082 12.856 262.932 12.984C262.783 13.0907 262.538 13.2293 262.196 13.4C260.746 14.1253 259.402 15.1067 258.164 16.344C256.927 17.56 255.914 18.7653 255.124 19.96C254.335 21.1333 253.514 21.72 252.66 21.72C251.807 21.72 251.135 21.2827 250.644 20.408C250.154 19.512 249.844 18.3493 249.716 16.92C249.716 16.8987 249.652 16.3973 249.524 15.416C249.418 14.4133 249.311 13.4107 249.204 12.408C248.906 9.592 248.756 7.68267 248.756 6.68ZM273.716 22.04C273.14 22.04 272.82 21.72 272.756 21.08C272.714 20.632 272.415 20.1307 271.86 19.576C271.476 20.2587 270.687 21.0053 269.492 21.816C268.319 22.6053 266.954 23 265.396 23C264.394 23 263.551 22.6693 262.868 22.008C262.207 21.3253 261.876 20.4827 261.876 19.48C261.876 17.7947 262.527 16.312 263.828 15.032C265.13 13.7307 266.634 13.08 268.34 13.08C269.3 13.08 270.122 13.2613 270.804 13.624C271.508 13.9653 271.86 14.3173 271.86 14.68C271.86 15.32 271.54 15.64 270.9 15.64C270.772 15.64 270.463 15.5333 269.972 15.32C269.482 15.1067 268.938 15 268.34 15C267.188 15 266.143 15.4587 265.204 16.376C264.266 17.2933 263.796 18.328 263.796 19.48C263.796 19.9493 263.946 20.3333 264.244 20.632C264.543 20.9307 264.927 21.08 265.396 21.08C267.466 21.08 269.162 20.1307 270.484 18.232C270.612 18.04 270.73 17.816 270.836 17.56C270.964 17.304 271.071 17.144 271.156 17.08C271.263 16.9947 271.391 16.952 271.54 16.952C271.69 16.952 271.85 17.0053 272.02 17.112C272.191 17.1973 272.319 17.2933 272.404 17.4C272.511 17.4853 272.671 17.6453 272.884 17.88C273.098 18.0933 273.247 18.2427 273.332 18.328C274.228 19.224 274.676 20.1413 274.676 21.08C274.676 21.72 274.356 22.04 273.716 22.04ZM278.113 18.712C278.155 18.648 278.251 18.1893 278.401 17.336C278.571 16.4827 278.763 15.6507 278.977 14.84C279.211 14.008 279.617 13.24 280.193 12.536C280.79 11.832 281.505 11.48 282.337 11.48C283.958 11.48 285.323 11.9067 286.433 12.76C287.563 13.592 288.129 14.6693 288.129 15.992C288.129 17.3147 288.31 18.4987 288.673 19.544C289.035 20.568 289.515 21.08 290.113 21.08C290.518 21.08 291.019 20.952 291.617 20.696C292.577 20.312 293.142 20.12 293.313 20.12C293.953 20.12 294.273 20.44 294.273 21.08C294.273 21.5493 293.953 21.8907 293.313 22.104C292.118 22.7013 291.041 23 290.081 23C289.142 23 288.363 22.6053 287.745 21.816C287.126 21.0053 286.71 20.1093 286.497 19.128C286.305 18.1467 286.209 17.0907 286.209 15.96C286.209 15.2133 285.846 14.6053 285.121 14.136C284.395 13.6453 283.478 13.4 282.369 13.4C281.473 13.4 280.769 14.8293 280.257 17.688C280.043 18.7973 279.894 19.4373 279.809 19.608C279.446 20.3547 278.454 21.08 276.833 21.784C276.449 21.9547 276.139 22.04 275.905 22.04C275.265 22.04 274.945 21.72 274.945 21.08C274.945 20.6747 275.265 20.344 275.905 20.088C277.163 19.576 277.899 19.1173 278.113 18.712ZM8.77975 59.088C9.93175 58.6187 10.8384 58.128 11.4998 57.616C12.1611 57.0827 12.9718 56.3147 13.9318 55.312C14.8918 54.3093 15.5211 53.68 15.8198 53.424C16.8438 52.528 17.9318 52.08 19.0838 52.08C19.7878 52.08 20.5558 52.2507 21.3878 52.592C22.2411 52.9333 23.0304 53.5413 23.7558 54.416C24.4811 55.2907 24.8438 56.336 24.8438 57.552C24.8438 58.7467 24.1398 59.792 22.7318 60.688C21.3238 61.5627 19.4678 62 17.1638 62C16.5238 62 16.2038 61.68 16.2038 61.04C16.2038 60.4 16.5238 60.08 17.1638 60.08C18.9131 60.08 20.3104 59.8027 21.3558 59.248C22.4011 58.672 22.9238 58.096 22.9238 57.52C22.9238 56.7307 22.6678 56.048 22.1558 55.472C21.2598 54.4907 20.2358 54 19.0838 54C18.4224 54 17.7718 54.2773 17.1318 54.832C16.9398 55.0027 16.3211 55.6213 15.2758 56.688C14.2518 57.7547 13.3984 58.5547 12.7158 59.088C12.0544 59.6213 11.2864 60.08 10.4118 60.464C9.55842 60.848 9.01442 61.04 8.77975 61.04C8.13975 61.04 7.81975 60.72 7.81975 60.08C7.81975 59.6747 8.13975 59.344 8.77975 59.088ZM40.525 59.376C40.525 59.376 40.8663 59.2907 41.549 59.12C42.189 59.12 42.509 59.44 42.509 60.08C42.509 60.5493 42.189 60.8907 41.549 61.104C41.165 61.232 40.781 61.296 40.397 61.296C40.0343 61.296 39.6823 61.2107 39.341 61.04C38.9997 60.8693 38.733 60.6133 38.541 60.272C38.221 59.7173 37.9863 59.12 37.837 58.48L37.709 57.936C37.3463 58.5547 36.461 59.28 35.053 60.112C33.6663 60.944 32.1837 61.36 30.605 61.36C29.7517 61.36 29.005 61.04 28.365 60.4C27.725 59.76 27.405 59.0133 27.405 58.16C27.405 56.0907 28.2583 54.2987 29.965 52.784C31.6717 51.248 33.3997 50.48 35.149 50.48C36.109 50.48 36.9303 50.6613 37.613 51.024C38.317 51.3653 38.669 51.7173 38.669 52.08C38.669 52.72 38.349 53.04 37.709 53.04C37.581 53.04 37.2717 52.9333 36.781 52.72C36.2903 52.5067 35.7463 52.4 35.149 52.4C33.997 52.4 32.7383 52.9653 31.373 54.096C30.0077 55.2053 29.325 56.56 29.325 58.16C29.325 58.48 29.453 58.7787 29.709 59.056C29.9863 59.312 30.285 59.44 30.605 59.44C31.8637 59.44 33.037 59.1093 34.125 58.448C35.213 57.7653 35.9063 57.2107 36.205 56.784C36.5037 56.336 36.749 55.9307 36.941 55.568C37.133 55.2053 37.2717 54.9707 37.357 54.864C37.4637 54.736 37.677 54.672 37.997 54.672C38.317 54.672 38.5623 54.7893 38.733 55.024C38.9037 55.2587 39.0637 55.632 39.213 56.144C39.3623 56.6347 39.5117 57.1893 39.661 57.808C39.8103 58.4267 39.9383 58.8427 40.045 59.056C40.173 59.2693 40.333 59.376 40.525 59.376ZM52.7 62C50.652 62 48.9347 60.464 47.548 57.392C46.78 58.0107 45.8093 58.6933 44.636 59.44C43.4627 60.1867 42.6947 60.6453 42.332 60.816C41.9693 60.9653 41.6707 61.04 41.436 61.04C40.796 61.04 40.476 60.72 40.476 60.08C40.476 59.6747 40.796 59.344 41.436 59.088C41.7987 58.9387 42.556 58.4907 43.708 57.744C44.8813 56.976 45.8733 56.2613 46.684 55.6C46.2147 54.064 45.98 52.3573 45.98 50.48C45.98 47.6427 46.5027 45.1893 47.548 43.12C48.6147 41.0293 49.7987 39.984 51.1 39.984C51.6547 39.984 52.1347 40.1547 52.54 40.496C52.9453 40.8373 53.244 41.264 53.436 41.776C53.7987 42.7573 53.98 43.824 53.98 44.976C53.98 46.128 53.852 47.3013 53.596 48.496C53.34 49.6693 53.0307 50.6613 52.668 51.472C52.3267 52.2827 51.9107 53.04 51.42 53.744C50.6947 54.7893 49.9373 55.632 49.148 56.272C50.3 58.8107 51.484 60.08 52.7 60.08C53.532 60.08 54.428 59.92 55.388 59.6C56.348 59.28 56.86 59.12 56.924 59.12C57.564 59.12 57.884 59.44 57.884 60.08C57.884 60.5493 57.564 60.8907 56.924 61.104C55.132 61.7013 53.724 62 52.7 62ZM51.1 41.904C50.7373 41.904 50.268 42.352 49.692 43.248C48.4973 45.1253 47.9 47.536 47.9 50.48C47.9 51.9733 48.06 53.2853 48.38 54.416C49.084 53.7547 49.7347 52.9013 50.332 51.856C51.484 49.8507 52.06 47.472 52.06 44.72C52.06 44.1013 51.9747 43.4827 51.804 42.864C51.6333 42.224 51.3987 41.904 51.1 41.904ZM71.275 59.376C71.275 59.376 71.6163 59.2907 72.299 59.12C72.939 59.12 73.259 59.44 73.259 60.08C73.259 60.5493 72.939 60.8907 72.299 61.104C71.915 61.232 71.531 61.296 71.147 61.296C70.7843 61.296 70.4323 61.2107 70.091 61.04C69.7497 60.8693 69.483 60.6133 69.291 60.272C68.971 59.7173 68.7363 59.12 68.587 58.48L68.459 57.936C68.0963 58.5547 67.211 59.28 65.803 60.112C64.4163 60.944 62.9337 61.36 61.355 61.36C60.5017 61.36 59.755 61.04 59.115 60.4C58.475 59.76 58.155 59.0133 58.155 58.16C58.155 56.0907 59.0083 54.2987 60.715 52.784C62.4217 51.248 64.1497 50.48 65.899 50.48C66.859 50.48 67.6803 50.6613 68.363 51.024C69.067 51.3653 69.419 51.7173 69.419 52.08C69.419 52.72 69.099 53.04 68.459 53.04C68.331 53.04 68.0217 52.9333 67.531 52.72C67.0403 52.5067 66.4963 52.4 65.899 52.4C64.747 52.4 63.4883 52.9653 62.123 54.096C60.7577 55.2053 60.075 56.56 60.075 58.16C60.075 58.48 60.203 58.7787 60.459 59.056C60.7363 59.312 61.035 59.44 61.355 59.44C62.6137 59.44 63.787 59.1093 64.875 58.448C65.963 57.7653 66.6563 57.2107 66.955 56.784C67.2537 56.336 67.499 55.9307 67.691 55.568C67.883 55.2053 68.0217 54.9707 68.107 54.864C68.2137 54.736 68.427 54.672 68.747 54.672C69.067 54.672 69.3123 54.7893 69.483 55.024C69.6537 55.2587 69.8137 55.632 69.963 56.144C70.1123 56.6347 70.2617 57.1893 70.411 57.808C70.5603 58.4267 70.6883 58.8427 70.795 59.056C70.923 59.2693 71.083 59.376 71.275 59.376ZM97.658 53.008C97.5727 52.9867 97.3807 52.912 97.082 52.784C96.4207 52.5067 95.738 52.3787 95.034 52.4C93.9247 52.4 92.8367 52.9013 91.77 53.904C90.7033 54.9067 90.17 56.2187 90.17 57.84C90.17 58.3093 90.3193 58.6933 90.618 58.992C90.9167 59.2907 91.2473 59.44 91.61 59.44C91.994 59.44 92.314 59.408 92.57 59.344C92.826 59.28 93.0607 59.184 93.274 59.056C93.5087 58.9067 93.7113 58.768 93.882 58.64C94.074 58.4907 94.266 58.2987 94.458 58.064C94.65 57.8293 94.7993 57.6373 94.906 57.488C95.034 57.3387 95.1727 57.1253 95.322 56.848C95.4927 56.5707 95.61 56.3787 95.674 56.272C95.738 56.144 95.834 55.9413 95.962 55.664C96.538 54.4267 97.1033 53.5413 97.658 53.008ZM88.25 57.84C88.25 55.7493 88.954 54 90.362 52.592C91.77 51.184 93.3273 50.48 95.034 50.48C96.0153 50.48 96.9007 50.6613 97.69 51.024C98.4793 51.3867 98.874 51.7387 98.874 52.08C98.874 52.336 98.7993 52.56 98.65 52.752C98.9913 52.8373 99.2367 53.0293 99.386 53.328C99.5353 53.6053 99.6313 53.968 99.674 54.416C99.7167 54.8427 99.7487 55.312 99.77 55.824C99.8127 56.336 99.8553 56.784 99.898 57.168C99.9407 57.5307 99.9833 57.9253 100.026 58.352C100.133 59.2267 100.261 59.6747 100.41 59.696C100.943 59.696 101.509 59.6 102.106 59.408C102.703 59.216 103.013 59.12 103.034 59.12C103.674 59.12 103.994 59.44 103.994 60.08C103.994 60.5493 103.674 60.8907 103.034 61.104C102.01 61.4453 101.178 61.616 100.538 61.616C99.9193 61.616 99.4287 61.36 99.066 60.848C98.682 60.336 98.426 59.7173 98.298 58.992C98.042 57.6907 97.914 56.6987 97.914 56.016C97.8927 56.0587 97.818 56.2187 97.69 56.496C97.562 56.752 97.466 56.944 97.402 57.072C97.338 57.2 97.21 57.424 97.018 57.744C96.8473 58.0427 96.698 58.288 96.57 58.48C96.442 58.6507 96.2607 58.8853 96.026 59.184C95.8127 59.4613 95.5993 59.6853 95.386 59.856C95.194 60.0267 94.9487 60.2187 94.65 60.432C94.3727 60.624 94.0953 60.784 93.818 60.912C93.1353 61.2107 92.4527 61.36 91.77 61.36C90.5967 61.36 89.6687 60.9333 88.986 60.08C87.834 59.9307 86.8847 59.4293 86.138 58.576C85.4127 57.7013 84.9647 56.6347 84.794 55.376C83.6207 57.3173 82.3727 58.9067 81.05 60.144C79.7487 61.3813 78.5327 62 77.402 62C76.2713 62 75.3433 61.6693 74.618 61.008C73.8927 60.3253 73.53 59.1093 73.53 57.36C73.53 55.5893 74.106 54 75.258 52.592C76.41 51.184 77.754 50.48 79.29 50.48C80.1433 50.48 81.082 50.8853 82.106 51.696C82.5753 52.08 82.81 52.4213 82.81 52.72C82.81 53.36 82.49 53.68 81.85 53.68C81.594 53.68 81.4233 53.6373 81.338 53.552C81.1673 53.3813 80.986 53.232 80.794 53.104C80.218 52.6347 79.7167 52.4 79.29 52.4C78.3513 52.4 77.4767 52.9013 76.666 53.904C75.8553 54.8853 75.45 56.1333 75.45 57.648C75.45 58.608 75.5993 59.2587 75.898 59.6C76.218 59.92 76.698 60.08 77.338 60.08C77.978 60.08 78.778 59.632 79.738 58.736C80.698 57.84 81.6473 56.6987 82.586 55.312C83.5247 53.9253 84.3247 52.272 84.986 50.352C85.6687 48.4107 86.01 46.5333 86.01 44.72C86.01 44.3147 85.9567 43.8987 85.85 43.472C85.7433 43.0453 85.69 42.8213 85.69 42.8C85.69 42.16 86.01 41.84 86.65 41.84C87.5033 41.84 87.93 42.7787 87.93 44.656C87.93 46.5333 87.5887 48.5813 86.906 50.8C86.7353 52.1653 86.65 53.296 86.65 54.192C86.65 55.984 87.1833 57.2 88.25 57.84ZM102.905 59.088C104.057 58.6187 104.963 58.128 105.625 57.616C106.286 57.0827 107.097 56.3147 108.057 55.312C109.017 54.3093 109.646 53.68 109.945 53.424C110.969 52.528 112.057 52.08 113.209 52.08C113.913 52.08 114.681 52.2507 115.513 52.592C116.366 52.9333 117.155 53.5413 117.881 54.416C118.606 55.2907 118.969 56.336 118.969 57.552C118.969 58.7467 118.265 59.792 116.857 60.688C115.449 61.5627 113.593 62 111.289 62C110.649 62 110.329 61.68 110.329 61.04C110.329 60.4 110.649 60.08 111.289 60.08C113.038 60.08 114.435 59.8027 115.481 59.248C116.526 58.672 117.049 58.096 117.049 57.52C117.049 56.7307 116.793 56.048 116.281 55.472C115.385 54.4907 114.361 54 113.209 54C112.547 54 111.897 54.2773 111.257 54.832C111.065 55.0027 110.446 55.6213 109.401 56.688C108.377 57.7547 107.523 58.5547 106.841 59.088C106.179 59.6213 105.411 60.08 104.537 60.464C103.683 60.848 103.139 61.04 102.905 61.04C102.265 61.04 101.945 60.72 101.945 60.08C101.945 59.6747 102.265 59.344 102.905 59.088ZM143.017 46.128C143.358 46.128 143.71 46.288 144.073 46.608C144.436 46.9067 144.617 47.2267 144.617 47.568C144.617 47.888 144.468 48.1333 144.169 48.304C143.892 48.4747 143.582 48.56 143.241 48.56C142.9 48.56 142.612 48.4107 142.377 48.112C142.164 47.792 142.057 47.4507 142.057 47.088C142.057 46.448 142.377 46.128 143.017 46.128ZM140.137 58.032C138.942 59.312 137.726 60.2293 136.489 60.784C136.105 60.9547 135.796 61.04 135.561 61.04C134.921 61.04 134.601 60.72 134.601 60.08C134.601 59.6747 134.921 59.344 135.561 59.088C135.902 58.96 136.35 58.704 136.905 58.32C137.481 57.936 137.865 57.648 138.057 57.456C138.249 57.264 138.58 56.912 139.049 56.4C139.54 55.888 139.924 55.504 140.201 55.248C140.478 54.9707 140.852 54.6933 141.321 54.416C141.812 54.1387 142.26 54 142.665 54C143.497 54 144.137 54.2987 144.585 54.896C145.033 55.4933 145.3 56.1547 145.385 56.88C145.62 58.8 145.993 59.76 146.505 59.76C146.91 59.76 147.433 59.6533 148.073 59.44C148.713 59.2267 149.065 59.12 149.129 59.12C149.769 59.12 150.089 59.44 150.089 60.08C150.089 60.5493 149.769 60.8907 149.129 61.104C147.977 61.488 147.038 61.68 146.313 61.68C145.609 61.68 145.033 61.3813 144.585 60.784C144.137 60.1867 143.87 59.5253 143.785 58.8C143.55 56.88 143.177 55.92 142.665 55.92C142.388 55.92 142.068 56.1013 141.705 56.464C141.364 56.8053 141.086 57.0827 140.873 57.296C140.66 57.488 140.414 57.7333 140.137 58.032ZM169.287 61.104C168.135 61.488 167.239 61.68 166.599 61.68C165.959 61.68 165.457 61.4453 165.095 60.976C164.732 60.5067 164.401 59.7067 164.103 58.576C163.825 57.4453 163.612 56.88 163.463 56.88C162.908 56.88 162.321 57.7333 161.703 59.44C161.468 60.08 161.084 60.6667 160.551 61.2C160.017 61.7333 159.345 62 158.535 62C157.745 62 157.127 61.648 156.679 60.944C156.231 60.24 155.964 59.472 155.879 58.64C155.815 57.808 155.708 57.04 155.559 56.336C155.409 55.632 155.164 55.28 154.823 55.28C154.588 55.28 154.417 55.344 154.311 55.472C154.204 55.6 154.108 55.728 154.023 55.856C153.959 55.9627 153.884 56.08 153.799 56.208C153.735 56.3147 153.649 56.464 153.543 56.656C153.457 56.848 153.351 57.0507 153.223 57.264C152.796 58.0107 152.455 58.5653 152.199 58.928C151.687 59.7387 150.929 60.3573 149.927 60.784C149.543 60.9547 149.233 61.04 148.998 61.04C148.358 61.04 148.038 60.72 148.038 60.08C148.038 59.6747 148.38 59.344 149.062 59.088C149.745 58.832 150.225 58.4693 150.503 58C150.801 57.5093 151.132 56.9547 151.495 56.336C151.857 55.7173 152.103 55.3013 152.231 55.088C152.38 54.8747 152.561 54.6187 152.775 54.32C152.988 54 153.18 53.7973 153.351 53.712C153.799 53.4773 154.289 53.36 154.823 53.36C155.697 53.36 156.359 53.712 156.807 54.416C157.255 55.12 157.511 55.888 157.575 56.72C157.66 57.552 157.777 58.32 157.927 59.024C158.076 59.728 158.321 60.08 158.663 60.08C159.004 60.08 159.324 59.8133 159.623 59.28C159.943 58.7467 160.22 58.16 160.455 57.52C160.689 56.88 161.063 56.2933 161.575 55.76C162.108 55.2267 162.737 54.96 163.463 54.96C164.017 54.96 164.423 55.0987 164.679 55.376C164.935 55.632 165.116 55.8347 165.222 55.984C165.351 56.1333 165.457 56.3573 165.543 56.656C165.649 56.9547 165.724 57.1787 165.767 57.328C165.809 57.456 165.873 57.6907 165.958 58.032C166.215 59.2053 166.449 59.7813 166.663 59.76C167.068 59.76 167.591 59.6533 168.231 59.44C168.871 59.2267 169.223 59.12 169.287 59.12C169.927 59.12 170.247 59.44 170.247 60.08C170.247 60.5493 169.927 60.8907 169.287 61.104ZM177.539 62H175.619C173.827 62 172.525 61.584 171.715 60.752C170.904 59.8987 170.499 58.8213 170.499 57.52C170.499 55.6213 171.117 53.9787 172.355 52.592C173.592 51.184 175 50.48 176.579 50.48C177.475 50.48 178.285 50.6613 179.011 51.024C179.736 51.3867 180.099 51.7387 180.099 52.08C180.099 52.72 179.779 53.04 179.139 53.04C178.861 53.04 178.509 52.9333 178.083 52.72C177.656 52.5067 177.155 52.4 176.579 52.4C175.427 52.4 174.445 52.944 173.635 54.032C172.824 55.0987 172.419 56.1653 172.419 57.232C172.419 58.2987 172.664 59.0453 173.155 59.472C173.667 59.8773 174.488 60.08 175.619 60.08H177.539C179.011 60.08 180.483 59.8347 181.955 59.344C182.403 59.1947 182.659 59.12 182.723 59.12C183.363 59.12 183.683 59.44 183.683 60.08C183.683 60.5493 183.363 60.8907 182.723 61.104C180.931 61.7013 179.203 62 177.539 62ZM184.8 57.712C184.843 57.648 184.939 57.1893 185.088 56.336C185.259 55.4827 185.451 54.6507 185.664 53.84C185.899 53.008 186.304 52.24 186.88 51.536C187.478 50.832 188.192 50.48 189.024 50.48C190.646 50.48 192.011 50.9067 193.12 51.76C194.251 52.592 194.816 53.6693 194.816 54.992C194.816 56.3147 194.998 57.4987 195.36 58.544C195.723 59.568 196.203 60.08 196.8 60.08C197.206 60.08 197.707 59.952 198.304 59.696C199.264 59.312 199.83 59.12 200 59.12C200.64 59.12 200.96 59.44 200.96 60.08C200.96 60.5493 200.64 60.8907 200 61.104C198.806 61.7013 197.728 62 196.768 62C195.83 62 195.051 61.6053 194.432 60.816C193.814 60.0053 193.398 59.1093 193.184 58.128C192.992 57.1467 192.896 56.0907 192.896 54.96C192.896 54.2133 192.534 53.6053 191.808 53.136C191.083 52.6453 190.166 52.4 189.056 52.4C188.16 52.4 187.456 53.8293 186.944 56.688C186.731 57.7973 186.582 58.4373 186.496 58.608C186.134 59.3547 185.142 60.08 183.52 60.784C183.136 60.9547 182.827 61.04 182.592 61.04C181.952 61.04 181.632 60.72 181.632 60.08C181.632 59.6747 181.952 59.344 182.592 59.088C183.851 58.576 184.587 58.1173 184.8 57.712ZM204.738 46.768C204.098 46.768 203.778 46.448 203.778 45.808C203.778 45.5947 203.831 45.4133 203.938 45.264C204.066 45.1147 204.194 44.976 204.322 44.848C204.45 44.6987 204.546 44.5813 204.61 44.496C206.572 42.2773 208.375 40.8373 210.018 40.176C210.338 40.048 210.604 39.984 210.818 39.984C211.458 39.984 211.778 40.304 211.778 40.944C211.778 41.1147 211.671 41.296 211.458 41.488C211.266 41.68 210.924 41.872 210.434 42.064C209.964 42.256 209.25 42.7573 208.29 43.568C207.33 44.3787 206.572 45.1253 206.018 45.808C205.463 46.448 205.036 46.768 204.738 46.768ZM204.45 58.032C203.255 59.312 202.039 60.2293 200.802 60.784C200.418 60.9547 200.108 61.04 199.873 61.04C199.233 61.04 198.913 60.72 198.913 60.08C198.913 59.6747 199.233 59.344 199.873 59.088C200.215 58.96 200.663 58.704 201.218 58.32C201.794 57.936 202.178 57.648 202.37 57.456C202.562 57.264 202.892 56.912 203.362 56.4C203.852 55.888 204.236 55.504 204.514 55.248C204.791 54.9707 205.164 54.6933 205.634 54.416C206.124 54.1387 206.572 54 206.978 54C207.81 54 208.45 54.2987 208.898 54.896C209.346 55.4933 209.612 56.1547 209.698 56.88C209.932 58.8 210.306 59.76 210.818 59.76C211.223 59.76 211.746 59.6533 212.386 59.44C213.026 59.2267 213.378 59.12 213.442 59.12C214.082 59.12 214.402 59.44 214.402 60.08C214.402 60.5493 214.082 60.8907 213.442 61.104C212.29 61.488 211.351 61.68 210.626 61.68C209.922 61.68 209.346 61.3813 208.898 60.784C208.45 60.1867 208.183 59.5253 208.098 58.8C207.863 56.88 207.49 55.92 206.978 55.92C206.7 55.92 206.38 56.1013 206.018 56.464C205.676 56.8053 205.399 57.0827 205.186 57.296C204.972 57.488 204.727 57.7333 204.45 58.032ZM234.015 57.2C233.183 57.1787 232.447 57.0293 231.807 56.752C231.21 56.496 230.762 56.208 230.463 55.888C229.716 55.056 229.14 54.64 228.735 54.64C228.052 54.64 227.626 54.96 227.455 55.6C227.028 57.6053 226.527 59.0987 225.951 60.08C225.204 61.36 224.276 62 223.167 62C221.61 62 220.308 61.1893 219.263 59.568C218.324 58.1173 217.492 56.3253 216.767 54.192C216.212 52.5707 215.935 51.6533 215.935 51.44C215.935 50.8 216.255 50.48 216.895 50.48C217.194 50.48 217.396 50.544 217.503 50.672C217.631 50.8 217.759 51.0453 217.887 51.408C218.954 54.6293 219.743 56.7093 220.255 57.648C221.13 59.2693 222.1 60.08 223.167 60.08C224.084 60.08 224.895 58.4373 225.599 55.152C226.026 53.5307 227.06 52.72 228.703 52.72C229.3 52.72 229.812 52.848 230.239 53.104C230.666 53.36 230.986 53.648 231.199 53.968C231.434 54.2667 231.775 54.5547 232.223 54.832C232.671 55.088 233.215 55.2373 233.855 55.28C233.983 51.2267 235.37 49.2 238.015 49.2C239.231 49.2 240.17 49.552 240.831 50.256C241.514 50.96 241.855 51.7813 241.855 52.72C241.855 53.6587 241.556 54.5227 240.959 55.312C240.212 56.3147 238.559 56.9227 235.999 57.136C236.298 57.9893 236.82 58.6933 237.567 59.248C238.335 59.8027 239.018 60.08 239.615 60.08C241.087 60.08 242.559 59.8347 244.031 59.344C244.479 59.1947 244.735 59.12 244.799 59.12C245.439 59.12 245.759 59.44 245.759 60.08C245.759 60.5493 245.439 60.8907 244.799 61.104C243.007 61.7013 241.279 62 239.615 62C238.591 62 237.482 61.552 236.287 60.656C235.114 59.76 234.356 58.608 234.015 57.2ZM235.775 55.216C237.652 55.088 238.847 54.7467 239.359 54.192C239.743 53.7653 239.935 53.2747 239.935 52.72C239.935 51.6533 239.295 51.12 238.015 51.12C236.586 51.12 235.839 52.4853 235.775 55.216ZM252.142 46.128C252.483 46.128 252.835 46.288 253.198 46.608C253.561 46.9067 253.742 47.2267 253.742 47.568C253.742 47.888 253.593 48.1333 253.294 48.304C253.017 48.4747 252.707 48.56 252.366 48.56C252.025 48.56 251.737 48.4107 251.502 48.112C251.289 47.792 251.182 47.4507 251.182 47.088C251.182 46.448 251.502 46.128 252.142 46.128ZM249.262 58.032C248.067 59.312 246.851 60.2293 245.614 60.784C245.23 60.9547 244.921 61.04 244.686 61.04C244.046 61.04 243.726 60.72 243.726 60.08C243.726 59.6747 244.046 59.344 244.686 59.088C245.027 58.96 245.475 58.704 246.03 58.32C246.606 57.936 246.99 57.648 247.182 57.456C247.374 57.264 247.705 56.912 248.174 56.4C248.665 55.888 249.049 55.504 249.326 55.248C249.603 54.9707 249.977 54.6933 250.446 54.416C250.937 54.1387 251.385 54 251.79 54C252.622 54 253.262 54.2987 253.71 54.896C254.158 55.4933 254.425 56.1547 254.51 56.88C254.745 58.8 255.118 59.76 255.63 59.76C256.035 59.76 256.558 59.6533 257.198 59.44C257.838 59.2267 258.19 59.12 258.254 59.12C258.894 59.12 259.214 59.44 259.214 60.08C259.214 60.5493 258.894 60.8907 258.254 61.104C257.102 61.488 256.163 61.68 255.438 61.68C254.734 61.68 254.158 61.3813 253.71 60.784C253.262 60.1867 252.995 59.5253 252.91 58.8C252.675 56.88 252.302 55.92 251.79 55.92C251.513 55.92 251.193 56.1013 250.83 56.464C250.489 56.8053 250.211 57.0827 249.998 57.296C249.785 57.488 249.539 57.7333 249.262 58.032ZM258.123 59.088C259.276 58.6187 260.182 58.128 260.844 57.616C261.505 57.0827 262.316 56.3147 263.276 55.312C264.236 54.3093 264.865 53.68 265.164 53.424C266.188 52.528 267.276 52.08 268.428 52.08C269.132 52.08 269.9 52.2507 270.732 52.592C271.585 52.9333 272.374 53.5413 273.1 54.416C273.825 55.2907 274.188 56.336 274.188 57.552C274.188 58.7467 273.484 59.792 272.076 60.688C270.668 61.5627 268.812 62 266.508 62C265.868 62 265.548 61.68 265.548 61.04C265.548 60.4 265.868 60.08 266.508 60.08C268.257 60.08 269.654 59.8027 270.7 59.248C271.745 58.672 272.268 58.096 272.268 57.52C272.268 56.7307 272.012 56.048 271.5 55.472C270.604 54.4907 269.58 54 268.428 54C267.766 54 267.116 54.2773 266.476 54.832C266.284 55.0027 265.665 55.6213 264.62 56.688C263.596 57.7547 262.742 58.5547 262.06 59.088C261.398 59.6213 260.63 60.08 259.756 60.464C258.902 60.848 258.358 61.04 258.123 61.04C257.483 61.04 257.163 60.72 257.163 60.08C257.163 59.6747 257.483 59.344 258.123 59.088ZM277.389 42.16C277.389 41.52 277.709 41.2 278.349 41.2C278.861 41.2 279.181 41.52 279.309 42.16C279.607 43.6747 279.842 44.976 280.013 46.064C280.183 47.152 280.269 49.7973 280.269 54C280.269 54.64 279.949 54.96 279.309 54.96C278.669 54.96 278.349 54.64 278.349 54C278.349 49.7973 278.253 47.0773 278.061 45.84C278.039 45.5627 277.922 44.912 277.709 43.888C277.495 42.864 277.389 42.288 277.389 42.16ZM278.349 60.72C278.349 60.08 278.733 59.76 279.501 59.76C280.354 59.76 280.781 60.1867 280.781 61.04C280.781 61.68 280.461 62 279.821 62C279.479 62 279.149 61.872 278.829 61.616C278.509 61.3387 278.349 61.04 278.349 60.72ZM18.4483 128.36L18.2563 121.4C18.2563 120.92 18.4963 120.68 18.9763 120.68C19.4563 120.68 19.6963 120.952 19.6963 121.496C19.6963 122.024 19.7043 122.496 19.7203 122.912C20.0563 123.024 20.4883 123.08 21.0163 123.08C21.5443 123.08 22.0803 123.04 22.6243 122.96C23.1683 122.88 23.4723 122.84 23.5363 122.84C24.0163 122.84 24.2563 123.08 24.2563 123.56C24.2563 123.752 24.1843 123.912 24.0403 124.04C23.8963 124.168 23.7283 124.248 23.5363 124.28C22.3203 124.44 21.4883 124.52 21.0403 124.52C20.5923 124.52 20.1683 124.48 19.7683 124.4C19.8963 128.288 19.9603 130.248 19.9603 130.28C19.9603 130.76 19.7123 131 19.2163 131C18.9443 131 18.5683 130.76 18.0883 130.28C17.2883 129.48 16.6723 128.168 16.2402 126.344C15.8243 124.52 15.6163 122.712 15.6163 120.92C15.6163 120.152 15.8563 119.496 16.3363 118.952C16.8163 118.392 17.4563 117.976 18.2563 117.704C19.7763 117.192 21.4563 116.936 23.2963 116.936C24.2883 116.936 25.0163 117.056 25.4803 117.296C25.9443 117.52 26.1763 117.768 26.1763 118.04C26.1763 118.52 25.9363 118.76 25.4563 118.76C25.2963 118.76 25.0883 118.696 24.8323 118.568C24.5763 118.44 24.0563 118.376 23.2723 118.376C22.5043 118.376 21.8323 118.4 21.2563 118.448C20.6803 118.496 20.0323 118.6 19.3123 118.76C17.8083 119.08 17.0563 119.8 17.0563 120.92C17.0563 122.184 17.1683 123.52 17.3923 124.928C17.6163 126.32 17.9683 127.464 18.4483 128.36ZM36.9875 129.032C36.9875 129.032 37.2435 128.968 37.7555 128.84C38.2355 128.84 38.4755 129.08 38.4755 129.56C38.4755 129.912 38.2355 130.168 37.7555 130.328C37.4675 130.424 37.1795 130.472 36.8915 130.472C36.6195 130.472 36.3555 130.408 36.0995 130.28C35.8435 130.152 35.6435 129.96 35.4995 129.704C35.2595 129.288 35.0835 128.84 34.9715 128.36L34.8755 127.952C34.6035 128.416 33.9395 128.96 32.8835 129.584C31.8435 130.208 30.7315 130.52 29.5475 130.52C28.9075 130.52 28.3475 130.28 27.8675 129.8C27.3875 129.32 27.1475 128.76 27.1475 128.12C27.1475 126.568 27.7875 125.224 29.0675 124.088C30.3475 122.936 31.6435 122.36 32.9555 122.36C33.6755 122.36 34.2915 122.496 34.8035 122.768C35.3315 123.024 35.5955 123.288 35.5955 123.56C35.5955 124.04 35.3555 124.28 34.8755 124.28C34.7795 124.28 34.5475 124.2 34.1795 124.04C33.8115 123.88 33.4035 123.8 32.9555 123.8C32.0915 123.8 31.1475 124.224 30.1235 125.072C29.0995 125.904 28.5875 126.92 28.5875 128.12C28.5875 128.36 28.6835 128.584 28.8755 128.792C29.0835 128.984 29.3075 129.08 29.5475 129.08C30.4915 129.08 31.3715 128.832 32.1875 128.336C33.0035 127.824 33.5235 127.408 33.7475 127.088C33.9715 126.752 34.1555 126.448 34.2995 126.176C34.4435 125.904 34.5475 125.728 34.6115 125.648C34.6915 125.552 34.8515 125.504 35.0915 125.504C35.3315 125.504 35.5155 125.592 35.6435 125.768C35.7715 125.944 35.8915 126.224 36.0035 126.608C36.1155 126.976 36.2275 127.392 36.3395 127.856C36.4515 128.32 36.5475 128.632 36.6275 128.792C36.7235 128.952 36.8435 129.032 36.9875 129.032ZM42.0388 131C40.9988 131 40.1748 130.704 39.5668 130.112C38.9748 129.504 38.6788 128.68 38.6788 127.64C38.6788 126.216 39.1428 124.984 40.0708 123.944C40.9988 122.888 42.0548 122.36 43.2388 122.36C43.8948 122.36 44.4948 122.496 45.0388 122.768C45.5988 123.04 45.8788 123.304 45.8788 123.56C45.8788 124.04 45.6388 124.28 45.1588 124.28C44.9508 124.28 44.6868 124.2 44.3668 124.04C44.0468 123.88 43.6708 123.8 43.2388 123.8C42.3748 123.8 41.6388 124.208 41.0308 125.024C40.4228 125.824 40.1188 126.696 40.1188 127.64C40.1188 128.92 40.7588 129.56 42.0388 129.56C42.9508 129.56 43.9588 129.376 45.0628 129.008C45.3988 128.896 45.5908 128.84 45.6388 128.84C46.1188 128.84 46.3588 129.08 46.3588 129.56C46.3588 129.752 46.3108 129.904 46.2148 130.016C46.1188 130.128 45.8228 130.264 45.3268 130.424C44.8468 130.584 44.2308 130.728 43.4788 130.856C43.5268 131.224 43.7668 131.624 44.1988 132.056C44.9988 132.856 45.3988 133.704 45.3988 134.6C45.3988 135.384 45.0868 135.952 44.4628 136.304C43.9508 136.592 43.3188 136.816 42.5668 136.976C42.4868 136.992 42.3908 137 42.2788 137C41.7988 137 41.5588 136.76 41.5588 136.28C41.5588 136.056 41.6148 135.888 41.7268 135.776C41.8388 135.68 41.9588 135.616 42.0868 135.584C42.2148 135.568 42.3508 135.544 42.4948 135.512C42.6548 135.48 42.7668 135.456 42.8308 135.44C42.8948 135.44 42.9988 135.416 43.1428 135.368C43.2868 135.336 43.3908 135.296 43.4548 135.248C43.5348 135.2 43.6148 135.144 43.6948 135.08C43.8708 134.968 43.9588 134.776 43.9588 134.504C43.9588 134.232 43.8868 133.984 43.7428 133.76C43.6148 133.536 43.3828 133.256 43.0468 132.92C42.4708 132.344 42.1428 131.704 42.0628 131C42.0628 131 42.0548 131 42.0388 131ZM58.5969 129.032C58.5969 129.032 58.8529 128.968 59.3649 128.84C59.8449 128.84 60.0849 129.08 60.0849 129.56C60.0849 129.912 59.8449 130.168 59.3649 130.328C59.0769 130.424 58.7889 130.472 58.5009 130.472C58.2289 130.472 57.9649 130.408 57.7089 130.28C57.4529 130.152 57.2529 129.96 57.1089 129.704C56.8689 129.288 56.6929 128.84 56.5809 128.36L56.4849 127.952C56.2129 128.416 55.5489 128.96 54.4929 129.584C53.4529 130.208 52.3409 130.52 51.1569 130.52C50.5169 130.52 49.9569 130.28 49.4769 129.8C48.9969 129.32 48.7569 128.76 48.7569 128.12C48.7569 126.568 49.3969 125.224 50.6769 124.088C51.9569 122.936 53.2529 122.36 54.5649 122.36C55.2849 122.36 55.9009 122.496 56.4129 122.768C56.9409 123.024 57.2049 123.288 57.2049 123.56C57.2049 124.04 56.9649 124.28 56.4849 124.28C56.3889 124.28 56.1569 124.2 55.7889 124.04C55.4209 123.88 55.0129 123.8 54.5649 123.8C53.7009 123.8 52.7569 124.224 51.7329 125.072C50.7089 125.904 50.1969 126.92 50.1969 128.12C50.1969 128.36 50.2929 128.584 50.4849 128.792C50.6929 128.984 50.9169 129.08 51.1569 129.08C52.1009 129.08 52.9809 128.832 53.7969 128.336C54.6129 127.824 55.1329 127.408 55.3569 127.088C55.5809 126.752 55.7649 126.448 55.9089 126.176C56.0529 125.904 56.1569 125.728 56.2209 125.648C56.3009 125.552 56.4609 125.504 56.7009 125.504C56.9409 125.504 57.1249 125.592 57.2529 125.768C57.3809 125.944 57.5009 126.224 57.6129 126.608C57.7249 126.976 57.8369 127.392 57.9489 127.856C58.0609 128.32 58.1569 128.632 58.2369 128.792C58.3329 128.952 58.4529 129.032 58.5969 129.032ZM75.4194 117.032C75.6754 117.032 75.9394 117.152 76.2114 117.392C76.4834 117.616 76.6194 117.856 76.6194 118.112C76.6194 118.352 76.5074 118.536 76.2834 118.664C76.0754 118.792 75.8434 118.856 75.5874 118.856C75.3314 118.856 75.1154 118.744 74.9394 118.52C74.7794 118.28 74.6994 118.024 74.6994 117.752C74.6994 117.272 74.9394 117.032 75.4194 117.032ZM75.0354 131L73.4514 123.08C73.4514 122.6 73.6914 122.36 74.1714 122.36C74.5874 122.36 74.8434 122.632 74.9394 123.176C75.3234 124.952 75.8034 127.336 76.3794 130.328C77.4514 129.848 78.3954 129.48 79.2114 129.224C80.0274 128.968 80.4594 128.84 80.5074 128.84C80.9874 128.84 81.2274 129.08 81.2274 129.56C81.2274 129.912 80.9874 130.168 80.5074 130.328L80.0754 130.472C78.6994 130.936 77.5554 131.384 76.6434 131.816C77.0114 133.832 77.1954 135.2 77.1954 135.92C77.1954 136.64 76.9954 137.248 76.5954 137.744C76.2114 138.24 75.6674 138.488 74.9634 138.488C74.2594 138.488 73.5554 138.104 72.8514 137.336C72.1634 136.584 71.8194 135.752 71.8194 134.84C71.8194 133.464 72.8914 132.184 75.0354 131ZM75.2754 132.512C73.9314 133.344 73.2594 134.12 73.2594 134.84C73.2594 135.352 73.4674 135.848 73.8834 136.328C74.3154 136.808 74.6674 137.048 74.9394 137.048C75.2274 137.048 75.4354 136.928 75.5634 136.688C75.6914 136.464 75.7554 136.184 75.7554 135.848C75.7554 135.512 75.5954 134.4 75.2754 132.512ZM85.0288 119.6C84.5488 119.6 84.3088 119.36 84.3088 118.88C84.3088 118.72 84.3488 118.584 84.4288 118.472C84.5248 118.36 84.6208 118.256 84.7168 118.16C84.8128 118.048 84.8848 117.96 84.9328 117.896C86.4048 116.232 87.7568 115.152 88.9888 114.656C89.2288 114.56 89.4288 114.512 89.5888 114.512C90.0688 114.512 90.3088 114.752 90.3088 115.232C90.3088 115.504 90.0528 115.752 89.5408 115.976C89.0288 116.184 88.4128 116.592 87.6928 117.2C86.9728 117.808 86.4048 118.36 85.9888 118.856C85.5888 119.352 85.2688 119.6 85.0288 119.6ZM91.2688 129.032L92.0368 128.84C92.5168 128.84 92.7568 129.08 92.7568 129.56C92.7568 129.912 92.5168 130.168 92.0368 130.328C91.7488 130.424 91.4608 130.472 91.1728 130.472C90.9008 130.472 90.6368 130.408 90.3808 130.28C90.1248 130.152 89.9248 129.96 89.7808 129.704C89.5408 129.288 89.3648 128.84 89.2528 128.36L89.1568 127.952C88.8848 128.416 88.2208 128.96 87.1648 129.584C86.1248 130.208 85.0128 130.52 83.8288 130.52C83.1888 130.52 82.6288 130.28 82.1488 129.8C81.6688 129.32 81.4288 128.76 81.4288 128.12C81.4288 126.568 82.0688 125.224 83.3488 124.088C84.6288 122.936 85.9248 122.36 87.2368 122.36C87.9568 122.36 88.5728 122.496 89.0848 122.768C89.6128 123.024 89.8768 123.288 89.8768 123.56C89.8768 124.04 89.6368 124.28 89.1568 124.28C89.0608 124.28 88.8288 124.2 88.4608 124.04C88.0928 123.88 87.6848 123.8 87.2368 123.8C86.3728 123.8 85.4288 124.224 84.4048 125.072C83.3808 125.904 82.8688 126.92 82.8688 128.12C82.8688 128.36 82.9648 128.584 83.1568 128.792C83.3648 128.984 83.5888 129.08 83.8288 129.08C84.7728 129.08 85.6528 128.832 86.4688 128.336C87.2848 127.824 87.8048 127.408 88.0288 127.088C88.2528 126.752 88.4368 126.448 88.5808 126.176C88.7248 125.904 88.8288 125.728 88.8928 125.648C88.9728 125.552 89.1328 125.504 89.3728 125.504C89.6128 125.504 89.7968 125.592 89.9248 125.768C90.0528 125.944 90.1728 126.224 90.2848 126.608C90.3968 126.976 90.5088 127.392 90.6208 127.856C90.7328 128.32 90.8288 128.632 90.9088 128.792C91.0048 128.952 91.1248 129.032 91.2688 129.032ZM115.219 126.44C114.147 127.208 113.611 128.008 113.611 128.84C113.611 129.32 113.851 129.56 114.331 129.56C114.587 129.56 114.811 129.392 115.003 129.056C115.195 128.72 115.291 128.296 115.291 127.784C115.291 127.272 115.267 126.824 115.219 126.44ZM104.491 129.56C104.491 128.536 104.963 127.416 105.907 126.2C106.851 124.968 107.987 123.944 109.315 123.128C110.659 122.296 111.851 121.88 112.891 121.88C114.443 121.88 115.539 122.688 116.179 124.304C116.899 123.968 117.563 123.8 118.171 123.8C119.259 123.8 119.979 124.52 120.331 125.96C120.347 126.008 120.379 126.136 120.427 126.344C120.475 126.552 120.507 126.688 120.523 126.752C120.539 126.8 120.571 126.912 120.619 127.088C120.683 127.264 120.731 127.384 120.763 127.448C120.763 127.448 120.811 127.544 120.907 127.736C120.971 127.864 121.035 127.952 121.099 128C121.163 128.048 121.243 128.104 121.339 128.168C121.483 128.28 121.707 128.344 122.011 128.36C122.491 128.36 123.051 127.624 123.691 126.152C124.139 125.128 124.571 124.512 124.987 124.304C125.179 124.208 125.403 124.16 125.659 124.16C126.251 124.16 126.731 124.416 127.099 124.928C127.483 125.44 127.739 126.008 127.867 126.632C128.011 127.24 128.195 127.8 128.419 128.312C128.643 128.824 128.907 129.08 129.211 129.08C129.515 129.08 129.787 129.04 130.027 128.96C130.267 128.88 130.411 128.84 130.459 128.84C130.939 128.84 131.179 129.08 131.179 129.56C131.179 129.912 130.963 130.16 130.531 130.304C130.099 130.448 129.603 130.52 129.043 130.52C128.499 130.52 128.019 130.264 127.603 129.752C127.203 129.24 126.939 128.68 126.811 128.072C126.475 126.424 126.083 125.6 125.635 125.6C125.539 125.6 125.387 125.824 125.179 126.272C124.971 126.704 124.747 127.184 124.507 127.712C124.267 128.224 123.923 128.704 123.475 129.152C123.027 129.584 122.563 129.8 122.083 129.8C121.619 129.8 121.219 129.728 120.883 129.584C120.563 129.424 120.307 129.24 120.115 129.032C119.907 128.84 119.723 128.568 119.563 128.216C119.323 127.704 119.115 127.08 118.939 126.344C118.779 125.608 118.523 125.24 118.171 125.24C117.755 125.24 117.219 125.392 116.563 125.696C116.675 126.256 116.731 126.992 116.731 127.904C116.731 128.816 116.499 129.56 116.035 130.136C115.571 130.712 115.003 131 114.331 131C113.659 131 113.131 130.808 112.747 130.424C112.363 130.024 112.171 129.496 112.171 128.84C112.171 127.352 113.083 126.056 114.907 124.952C114.475 123.864 113.835 123.32 112.987 123.32C112.139 123.32 111.163 123.672 110.059 124.376C108.955 125.064 107.987 125.912 107.155 126.92C106.339 127.912 105.931 128.792 105.931 129.56C105.931 130.04 105.691 130.28 105.211 130.28C104.923 130.28 104.731 130.232 104.635 130.136C104.539 130.024 104.491 129.832 104.491 129.56ZM141.214 129.032C141.214 129.032 141.47 128.968 141.982 128.84C142.462 128.84 142.702 129.08 142.702 129.56C142.702 129.912 142.462 130.168 141.982 130.328C141.694 130.424 141.406 130.472 141.118 130.472C140.846 130.472 140.582 130.408 140.326 130.28C140.07 130.152 139.87 129.96 139.726 129.704C139.486 129.288 139.31 128.84 139.198 128.36L139.102 127.952C138.83 128.416 138.166 128.96 137.11 129.584C136.07 130.208 134.958 130.52 133.774 130.52C133.134 130.52 132.574 130.28 132.094 129.8C131.614 129.32 131.374 128.76 131.374 128.12C131.374 126.568 132.014 125.224 133.294 124.088C134.574 122.936 135.87 122.36 137.182 122.36C137.902 122.36 138.518 122.496 139.03 122.768C139.558 123.024 139.822 123.288 139.822 123.56C139.822 124.04 139.582 124.28 139.102 124.28C139.006 124.28 138.774 124.2 138.406 124.04C138.038 123.88 137.63 123.8 137.182 123.8C136.318 123.8 135.374 124.224 134.35 125.072C133.326 125.904 132.814 126.92 132.814 128.12C132.814 128.36 132.91 128.584 133.102 128.792C133.31 128.984 133.534 129.08 133.774 129.08C134.718 129.08 135.598 128.832 136.414 128.336C137.23 127.824 137.75 127.408 137.974 127.088C138.198 126.752 138.382 126.448 138.526 126.176C138.67 125.904 138.774 125.728 138.838 125.648C138.918 125.552 139.078 125.504 139.318 125.504C139.558 125.504 139.742 125.592 139.87 125.768C139.998 125.944 140.118 126.224 140.23 126.608C140.342 126.976 140.454 127.392 140.566 127.856C140.678 128.32 140.774 128.632 140.854 128.792C140.95 128.952 141.07 129.032 141.214 129.032ZM155.061 129.608C155.045 129.608 154.925 129.672 154.701 129.8C154.125 130.12 153.701 130.28 153.429 130.28C152.949 130.28 152.709 130.04 152.709 129.56C152.709 129.256 152.949 129.008 153.429 128.816C153.509 128.784 153.701 128.688 154.005 128.528C154.309 128.368 154.485 128.272 154.533 128.24C154.469 128.096 154.437 127.88 154.437 127.592C154.437 126.152 154.941 124.92 155.949 123.896C156.957 122.872 157.877 122.36 158.709 122.36C159.541 122.36 160.197 122.56 160.677 122.96C161.157 123.344 161.397 123.816 161.397 124.376C161.397 124.92 161.269 125.392 161.013 125.792C160.757 126.192 160.357 126.584 159.813 126.968C159.061 127.512 157.965 128.144 156.525 128.864C157.165 129.328 158.053 129.56 159.189 129.56C160.325 129.56 161.445 129.376 162.549 129.008C162.885 128.896 163.077 128.84 163.125 128.84C163.605 128.84 163.845 129.08 163.845 129.56C163.845 129.912 163.605 130.168 163.125 130.328C161.781 130.776 160.485 131 159.237 131C157.461 131 156.069 130.536 155.061 129.608ZM155.877 127.592C158.597 126.232 159.957 125.208 159.957 124.52C159.957 124.04 159.557 123.8 158.757 123.8C158.277 123.8 157.677 124.184 156.957 124.952C156.237 125.704 155.877 126.584 155.877 127.592ZM178.254 130.328C177.39 130.616 176.718 130.76 176.238 130.76C175.758 130.76 175.382 130.584 175.11 130.232C174.838 129.88 174.59 129.28 174.366 128.432C174.158 127.584 173.998 127.16 173.886 127.16C173.47 127.16 173.03 127.8 172.566 129.08C172.39 129.56 172.102 130 171.702 130.4C171.302 130.8 170.798 131 170.19 131C169.598 131 169.134 130.736 168.798 130.208C168.462 129.68 168.262 129.104 168.198 128.48C168.15 127.856 168.07 127.28 167.958 126.752C167.846 126.224 167.662 125.96 167.406 125.96C167.23 125.96 167.102 126.008 167.022 126.104C166.942 126.2 166.87 126.296 166.806 126.392C166.758 126.472 166.702 126.56 166.638 126.656C166.59 126.736 166.526 126.848 166.446 126.992C166.382 127.136 166.302 127.288 166.206 127.448C165.886 128.008 165.63 128.424 165.438 128.696C165.054 129.304 164.486 129.768 163.734 130.088C163.446 130.216 163.214 130.28 163.038 130.28C162.558 130.28 162.318 130.04 162.318 129.56C162.318 129.256 162.574 129.008 163.086 128.816C163.598 128.624 163.958 128.352 164.166 128C164.39 127.632 164.638 127.216 164.91 126.752C165.182 126.288 165.366 125.976 165.462 125.816C165.574 125.656 165.71 125.464 165.87 125.24C166.03 125 166.174 124.848 166.302 124.784C166.638 124.608 167.006 124.52 167.406 124.52C168.062 124.52 168.558 124.784 168.894 125.312C169.23 125.84 169.422 126.416 169.47 127.04C169.534 127.664 169.622 128.24 169.734 128.768C169.846 129.296 170.03 129.56 170.286 129.56C170.542 129.56 170.782 129.36 171.006 128.96C171.246 128.56 171.454 128.12 171.63 127.64C171.806 127.16 172.086 126.72 172.47 126.32C172.87 125.92 173.342 125.72 173.886 125.72C174.302 125.72 174.606 125.824 174.798 126.032C174.99 126.224 175.126 126.376 175.206 126.488C175.302 126.6 175.382 126.768 175.446 126.992C175.526 127.216 175.582 127.384 175.614 127.496C175.646 127.592 175.694 127.768 175.758 128.024C175.95 128.904 176.126 129.336 176.286 129.32C176.59 129.32 176.982 129.24 177.462 129.08C177.942 128.92 178.206 128.84 178.254 128.84C178.734 128.84 178.974 129.08 178.974 129.56C178.974 129.912 178.734 130.168 178.254 130.328ZM188.139 128.984C186.491 129.848 184.299 130.28 181.563 130.28C180.875 130.28 180.299 130.064 179.835 129.632C179.387 129.184 179.163 128.688 179.163 128.144C179.163 126.56 179.875 125.2 181.299 124.064C182.739 122.928 184.267 122.36 185.883 122.36C186.443 122.36 187.019 122.472 187.611 122.696C188.219 122.92 188.523 123.208 188.523 123.56C188.523 123.752 188.451 123.92 188.307 124.064C188.163 124.208 187.995 124.28 187.803 124.28C187.611 124.28 187.355 124.2 187.035 124.04C186.715 123.88 186.331 123.8 185.883 123.8C184.635 123.8 183.443 124.24 182.307 125.12C181.171 125.984 180.603 126.984 180.603 128.12C180.603 128.344 180.691 128.52 180.867 128.648C181.043 128.776 181.371 128.84 181.851 128.84C182.331 128.84 182.923 128.808 183.627 128.744C184.331 128.68 185.195 128.504 186.219 128.216C187.243 127.928 187.979 127.56 188.427 127.112C188.875 126.664 189.227 126.44 189.483 126.44C189.963 126.44 190.203 126.68 190.203 127.16C190.203 127.32 190.083 127.52 189.843 127.76C189.603 128 189.483 128.2 189.483 128.36C189.483 129.16 191.003 129.56 194.043 129.56C194.843 129.56 195.603 129.4 196.323 129.08C197.059 128.76 197.427 128.296 197.427 127.688C197.427 127.08 197.171 126.6 196.659 126.248C196.147 125.896 195.547 125.72 194.859 125.72C194.683 125.72 194.435 125.76 194.115 125.84C193.811 125.92 193.627 125.96 193.563 125.96C193.083 125.96 192.843 125.72 192.843 125.24C192.843 125 193.051 124.784 193.467 124.592C193.883 124.384 194.347 124.28 194.859 124.28C196.107 124.28 197.083 124.624 197.787 125.312C198.491 126 198.843 126.832 198.843 127.808C198.843 128.784 198.363 129.56 197.403 130.136C196.443 130.712 195.323 131 194.043 131C190.539 131 188.571 130.328 188.139 128.984ZM219.493 125.48C220.581 125.48 221.221 126.248 221.413 127.784C221.429 127.864 221.445 128.008 221.461 128.216C221.493 128.408 221.517 128.56 221.533 128.672C221.549 128.784 221.573 128.872 221.605 128.936C221.605 129 221.621 129.064 221.653 129.128C221.701 129.256 221.781 129.32 221.893 129.32C222.197 129.32 222.589 129.24 223.069 129.08C223.549 128.92 223.813 128.84 223.861 128.84C224.341 128.84 224.581 129.08 224.581 129.56C224.581 129.912 224.341 130.168 223.861 130.328C222.997 130.616 222.325 130.76 221.845 130.76C220.805 130.76 220.181 129.832 219.973 127.976C219.877 127.272 219.717 126.92 219.493 126.92C219.013 126.92 218.405 127.48 217.669 128.6C217.397 129.016 217.037 129.4 216.589 129.752C216.141 130.104 215.685 130.28 215.221 130.28C214.757 130.28 214.389 130.12 214.117 129.8C213.845 129.48 213.669 129.176 213.589 128.888C213.493 128.568 213.341 127.872 213.133 126.8C212.925 125.728 212.781 125.16 212.701 125.096C212.637 125.032 212.581 125 212.533 125C212.309 125 212.109 125.144 211.932 125.432C211.773 125.704 211.589 126.088 211.381 126.584C211.173 127.08 210.973 127.592 210.781 128.12C210.605 128.632 210.461 129.016 210.349 129.272C210.237 129.512 210.085 129.792 209.893 130.112C209.541 130.704 209.061 131 208.453 131C208.037 131 207.685 130.856 207.397 130.568C207.109 130.28 206.885 129.912 206.725 129.464C206.437 128.568 206.285 127.656 206.269 126.728C206.269 125.784 206.173 125.064 205.98 124.568C205.805 124.056 205.589 123.8 205.333 123.8C204.501 123.8 203.877 124.312 203.461 125.336C203.269 125.832 203.061 126.536 202.837 127.448C202.517 128.68 201.757 129.552 200.557 130.064C200.301 130.208 200.037 130.28 199.764 130.28C199.284 130.28 199.044 130.04 199.044 129.56C199.044 129.256 199.284 129.008 199.764 128.816C199.957 128.736 200.061 128.696 200.077 128.696C200.109 128.68 200.173 128.648 200.269 128.6C200.365 128.552 200.429 128.52 200.461 128.504C200.493 128.472 200.549 128.432 200.629 128.384C200.725 128.32 200.789 128.264 200.821 128.216C200.869 128.152 200.925 128.08 200.989 128C201.069 127.92 201.125 127.84 201.157 127.76C201.285 127.52 201.397 127.208 201.493 126.824C201.589 126.44 201.677 126.12 201.757 125.864C201.837 125.608 201.989 125.216 202.213 124.688C202.437 124.144 202.669 123.736 202.909 123.464C203.149 123.192 203.477 122.944 203.893 122.72C204.325 122.48 204.845 122.36 205.453 122.36C206.077 122.36 206.605 122.72 207.037 123.44C207.485 124.144 207.709 125.224 207.709 126.68C207.709 127.192 207.765 127.8 207.877 128.504C208.005 129.208 208.197 129.56 208.453 129.56C208.581 129.56 208.717 129.392 208.861 129.056C209.005 128.704 209.125 128.408 209.221 128.168C209.317 127.912 209.429 127.608 209.557 127.256C210.037 125.896 210.509 124.944 210.973 124.4C211.437 123.84 211.957 123.56 212.533 123.56C213.205 123.56 213.685 123.864 213.973 124.472C214.213 125 214.381 125.52 214.477 126.032C214.797 127.904 215.029 128.84 215.173 128.84C215.653 128.84 216.261 128.28 216.997 127.16C217.269 126.744 217.629 126.36 218.077 126.008C218.525 125.656 218.997 125.48 219.493 125.48ZM225.396 129.608C225.381 129.608 225.261 129.672 225.037 129.8C224.461 130.12 224.037 130.28 223.764 130.28C223.284 130.28 223.044 130.04 223.044 129.56C223.044 129.256 223.284 129.008 223.764 128.816C223.844 128.784 224.037 128.688 224.341 128.528C224.645 128.368 224.821 128.272 224.869 128.24C224.805 128.096 224.773 127.88 224.773 127.592C224.773 126.152 225.277 124.92 226.285 123.896C227.293 122.872 228.213 122.36 229.045 122.36C229.877 122.36 230.533 122.56 231.013 122.96C231.493 123.344 231.733 123.816 231.733 124.376C231.733 124.92 231.605 125.392 231.349 125.792C231.093 126.192 230.693 126.584 230.148 126.968C229.397 127.512 228.301 128.144 226.861 128.864C227.501 129.328 228.389 129.56 229.525 129.56C230.661 129.56 231.781 129.376 232.885 129.008C233.221 128.896 233.413 128.84 233.461 128.84C233.941 128.84 234.181 129.08 234.181 129.56C234.181 129.912 233.941 130.168 233.461 130.328C232.117 130.776 230.821 131 229.573 131C227.797 131 226.405 130.536 225.396 129.608ZM226.213 127.592C228.933 126.232 230.293 125.208 230.293 124.52C230.293 124.04 229.893 123.8 229.093 123.8C228.613 123.8 228.013 124.184 227.293 124.952C226.573 125.704 226.213 126.584 226.213 127.592ZM248.59 130.328C247.726 130.616 247.054 130.76 246.574 130.76C246.094 130.76 245.718 130.584 245.446 130.232C245.174 129.88 244.926 129.28 244.702 128.432C244.494 127.584 244.334 127.16 244.222 127.16C243.806 127.16 243.366 127.8 242.902 129.08C242.726 129.56 242.438 130 242.038 130.4C241.638 130.8 241.134 131 240.526 131C239.934 131 239.47 130.736 239.134 130.208C238.798 129.68 238.598 129.104 238.534 128.48C238.486 127.856 238.406 127.28 238.294 126.752C238.182 126.224 237.998 125.96 237.742 125.96C237.566 125.96 237.438 126.008 237.358 126.104C237.278 126.2 237.206 126.296 237.142 126.392C237.094 126.472 237.038 126.56 236.974 126.656C236.926 126.736 236.862 126.848 236.782 126.992C236.718 127.136 236.638 127.288 236.542 127.448C236.222 128.008 235.966 128.424 235.774 128.696C235.39 129.304 234.822 129.768 234.07 130.088C233.782 130.216 233.55 130.28 233.374 130.28C232.894 130.28 232.654 130.04 232.654 129.56C232.654 129.256 232.91 129.008 233.422 128.816C233.934 128.624 234.294 128.352 234.502 128C234.726 127.632 234.974 127.216 235.246 126.752C235.518 126.288 235.702 125.976 235.798 125.816C235.91 125.656 236.046 125.464 236.206 125.24C236.366 125 236.51 124.848 236.638 124.784C236.974 124.608 237.342 124.52 237.742 124.52C238.398 124.52 238.894 124.784 239.23 125.312C239.566 125.84 239.758 126.416 239.806 127.04C239.87 127.664 239.958 128.24 240.07 128.768C240.182 129.296 240.366 129.56 240.622 129.56C240.878 129.56 241.118 129.36 241.342 128.96C241.582 128.56 241.79 128.12 241.966 127.64C242.142 127.16 242.422 126.72 242.806 126.32C243.206 125.92 243.678 125.72 244.222 125.72C244.638 125.72 244.942 125.824 245.134 126.032C245.326 126.224 245.462 126.376 245.542 126.488C245.638 126.6 245.718 126.768 245.782 126.992C245.862 127.216 245.918 127.384 245.95 127.496C245.982 127.592 246.03 127.768 246.094 128.024C246.286 128.904 246.462 129.336 246.622 129.32C246.926 129.32 247.318 129.24 247.798 129.08C248.278 128.92 248.542 128.84 248.59 128.84C249.07 128.84 249.31 129.08 249.31 129.56C249.31 129.912 249.07 130.168 248.59 130.328ZM267.595 124.256C267.531 124.24 267.387 124.184 267.163 124.088C266.667 123.88 266.155 123.784 265.627 123.8C264.795 123.8 263.979 124.176 263.179 124.928C262.379 125.68 261.979 126.664 261.979 127.88C261.979 128.232 262.091 128.52 262.315 128.744C262.539 128.968 262.787 129.08 263.059 129.08C263.347 129.08 263.587 129.056 263.779 129.008C263.971 128.96 264.147 128.888 264.307 128.792C264.483 128.68 264.635 128.576 264.763 128.48C264.907 128.368 265.051 128.224 265.195 128.048C265.339 127.872 265.451 127.728 265.531 127.616C265.627 127.504 265.731 127.344 265.843 127.136C265.971 126.928 266.059 126.784 266.107 126.704C266.155 126.608 266.227 126.456 266.323 126.248C266.755 125.32 267.179 124.656 267.595 124.256ZM260.539 127.88C260.539 126.312 261.067 125 262.123 123.944C263.179 122.888 264.347 122.36 265.627 122.36C266.363 122.36 267.027 122.496 267.619 122.768C268.211 123.04 268.507 123.304 268.507 123.56C268.507 123.752 268.451 123.92 268.339 124.064C268.595 124.128 268.779 124.272 268.891 124.496C269.003 124.704 269.075 124.976 269.107 125.312C269.139 125.632 269.163 125.984 269.179 126.368C269.211 126.752 269.243 127.088 269.275 127.376C269.307 127.648 269.339 127.944 269.371 128.264C269.451 128.92 269.547 129.256 269.659 129.272C270.059 129.272 270.483 129.2 270.931 129.056C271.379 128.912 271.611 128.84 271.627 128.84C272.107 128.84 272.347 129.08 272.347 129.56C272.347 129.912 272.107 130.168 271.627 130.328C270.859 130.584 270.235 130.712 269.755 130.712C269.291 130.712 268.923 130.52 268.651 130.136C268.363 129.752 268.171 129.288 268.075 128.744C267.883 127.768 267.787 127.024 267.787 126.512C267.771 126.544 267.715 126.664 267.619 126.872C267.523 127.064 267.451 127.208 267.403 127.304C267.355 127.4 267.259 127.568 267.115 127.808C266.987 128.032 266.875 128.216 266.779 128.36C266.683 128.488 266.547 128.664 266.371 128.888C266.211 129.096 266.051 129.264 265.891 129.392C265.747 129.52 265.563 129.664 265.339 129.824C265.131 129.968 264.923 130.088 264.715 130.184C264.203 130.408 263.691 130.52 263.179 130.52C262.299 130.52 261.603 130.2 261.091 129.56C260.227 129.448 259.515 129.072 258.955 128.432C258.411 127.776 258.075 126.976 257.947 126.032C257.067 127.488 256.131 128.68 255.139 129.608C254.163 130.536 253.251 131 252.403 131C251.555 131 250.859 130.752 250.315 130.256C249.771 129.744 249.499 128.832 249.499 127.52C249.499 126.192 249.931 125 250.795 123.944C251.659 122.888 252.667 122.36 253.819 122.36C254.459 122.36 255.163 122.664 255.931 123.272C256.283 123.56 256.459 123.816 256.459 124.04C256.459 124.52 256.219 124.76 255.739 124.76C255.547 124.76 255.419 124.728 255.355 124.664C255.227 124.536 255.091 124.424 254.947 124.328C254.515 123.976 254.139 123.8 253.819 123.8C253.115 123.8 252.459 124.176 251.851 124.928C251.243 125.664 250.939 126.6 250.939 127.736C250.939 128.456 251.051 128.944 251.275 129.2C251.515 129.44 251.875 129.56 252.355 129.56C252.835 129.56 253.435 129.224 254.155 128.552C254.875 127.88 255.587 127.024 256.291 125.984C256.995 124.944 257.595 123.704 258.091 122.264C258.603 120.808 258.859 119.4 258.859 118.04C258.859 117.736 258.819 117.424 258.739 117.104C258.659 116.784 258.619 116.616 258.619 116.6C258.619 116.12 258.859 115.88 259.339 115.88C259.979 115.88 260.299 116.584 260.299 117.992C260.299 119.4 260.043 120.936 259.531 122.6C259.403 123.624 259.339 124.472 259.339 125.144C259.339 126.488 259.739 127.4 260.539 127.88ZM273.018 116.12C273.018 115.64 273.258 115.4 273.738 115.4C274.122 115.4 274.362 115.64 274.458 116.12C274.682 117.256 274.858 118.232 274.986 119.048C275.114 119.864 275.178 121.848 275.178 125C275.178 125.48 274.938 125.72 274.458 125.72C273.978 125.72 273.738 125.48 273.738 125C273.738 121.848 273.666 119.808 273.522 118.88C273.506 118.672 273.418 118.184 273.258 117.416C273.098 116.648 273.018 116.216 273.018 116.12ZM273.738 130.04C273.738 129.56 274.026 129.32 274.602 129.32C275.242 129.32 275.562 129.64 275.562 130.28C275.562 130.76 275.322 131 274.842 131C274.586 131 274.338 130.904 274.098 130.712C273.858 130.504 273.738 130.28 273.738 130.04Z" fill="black"/>
</svg>
